<?xml version="1.0" encoding="utf-8"?>
<!-- Generator: Adobe Illustrator 28.3.0, SVG Export Plug-In . SVG Version: 6.00 Build 0)  -->
<svg version="1.1" id="Layer_1" xmlns="http://www.w3.org/2000/svg" xmlns:xlink="http://www.w3.org/1999/xlink" x="0px" y="0px"
	 viewBox="0 0 126 101" style="enable-background:new 0 0 126 101;" xml:space="preserve">
<style type="text/css">
	.st0{fill:#008993;}
	.st1{fill:none;stroke:#303030;stroke-width:9;}
	.st2{fill:#303030;}
</style>
<path class="st0" d="M62.8,66h-6.3L48,52.3l6.3-8.4c-0.7-0.3-1.2-0.7-1.5-1l0.4-3.1h8.7l0.4,3.1c-0.4,0.4-1,0.8-2,1.2l-6.6,8.1l6,9
	c1.6,0.4,2.8,0.9,3.4,1.6L62.8,66z M49.5,39.8l0.4,3.2c-0.4,0.5-1.1,0.9-2.1,1.3v17.4c1,0.4,1.7,0.8,2.1,1.3l-0.4,3h-8.9l-0.4-3.2
	c0.3-0.4,1-0.8,2.1-1.3V44.2c-1-0.4-1.7-0.8-2.1-1.3l0.4-3.2L49.5,39.8L49.5,39.8z M73.3,56.9h-1.7v4.5c1.8,0.4,3,0.9,3.5,1.5
	L74.7,66H64.4L64,62.8c0.3-0.4,1-0.8,2.1-1.3V44.2c-1-0.4-1.7-0.8-2.1-1.3l0.4-3.2h10.1c3.5,0.1,6.1,0.7,7.9,1.9
	c1.7,1.2,2.6,3.4,2.6,6.5C85,54,81.1,56.9,73.3,56.9z M73.7,43.9h-2.3V51H74c1.8,0,3.1-0.3,3.9-0.8c0.9-0.5,1.3-1.5,1.3-2.8
	c0-1.4-0.5-2.3-1.5-2.7C76.9,44.2,75.6,43.9,73.7,43.9z"/>
<path class="st1" d="M107.7,51.9c2.8,13.2-2.1,24.1-11,32c-9,7.9-22.2,12.6-35.1,12.6s-26.2-5.1-35.4-13.3c-9.1-8.2-13.8-19-10.7-31
	C19,38.6,24.4,26.9,32,18.6c7.4-8.1,17.1-13,29.7-13c12.8,0,22.6,4.5,30.1,12.3C99.2,25.8,104.6,37.4,107.7,51.9z"/>
<path class="st2" d="M29,14.5c0,8-6.5,14.5-14.5,14.5S0,22.5,0,14.5S6.5,0,14.5,0S29,6.5,29,14.5z"/>
<path class="st2" d="M126,14.5c0,8-6.7,14.5-15,14.5s-15-6.5-15-14.5S102.7,0,111,0S126,6.5,126,14.5z"/>
</svg>
